<?xml version="1.0" encoding="UTF-8"?>
<svg version="1.1" xmlns="http://www.w3.org/2000/svg" width="512" height="512">
<path d="M0 0 C1.01201477 0.00054382 2.02402954 0.00108765 3.06671143 0.00164795 C19.59887291 0.04238923 35.523992 0.95817716 51.75 4.375 C52.78125 4.58930664 53.8125 4.80361328 54.875 5.02441406 C101.89222633 15.11842484 144.04412852 38.32033298 178.75 71.375 C179.648396 72.23037354 179.648396 72.23037354 180.56494141 73.10302734 C188.90810078 81.10600112 196.55345187 89.32479841 203.43945312 98.61572266 C204.76797091 100.39912413 206.12360037 102.15909516 207.484375 103.91796875 C240.57211779 147.19554439 257.23462099 201.50434221 257.125 255.625 C257.12418427 257.14302216 257.12418427 257.14302216 257.12335205 258.69171143 C257.08261077 275.22387291 256.16682284 291.148992 252.75 307.375 C252.42854004 308.921875 252.42854004 308.921875 252.10058594 310.5 C244.18431392 347.37346499 228.11800388 382.72468894 204.75 412.375 C203.96882813 413.36757813 203.18765625 414.36015625 202.3828125 415.3828125 C189.42755877 431.47601696 175.1502392 446.7824836 158.49316406 459.08056641 C156.71515129 460.40087785 154.96246329 461.7502701 153.2109375 463.10546875 C109.93827334 496.19907622 55.61860109 512.85961682 1.5 512.75 C-0.01802216 512.74918427 -0.01802216 512.74918427 -1.56671143 512.74835205 C-18.09887291 512.70761077 -34.023992 511.79182284 -50.25 508.375 C-51.796875 508.05354004 -51.796875 508.05354004 -53.375 507.72558594 C-90.24846499 499.80931392 -125.59968894 483.74300388 -155.25 460.375 C-156.24257812 459.59382813 -157.23515625 458.81265625 -158.2578125 458.0078125 C-173.89778886 445.4174137 -189.09715053 431.41497412 -201.25 415.375 C-201.65992188 414.84680664 -202.06984375 414.31861328 -202.4921875 413.77441406 C-214.32409459 398.50320262 -224.07713703 381.86196135 -232.25 364.375 C-232.54181152 363.76333984 -232.83362305 363.15167969 -233.13427734 362.52148438 C-240.65552866 346.66700469 -246.2764817 329.8760256 -250.0625 312.75 C-250.24506348 311.93072021 -250.42762695 311.11144043 -250.61572266 310.26733398 C-254.29012679 292.50432122 -255.80583393 274.86346274 -255.6875 256.75 C-255.68445862 255.75297058 -255.68141724 254.75594116 -255.67828369 253.72869873 C-255.60464151 237.32351292 -254.6400833 221.47402572 -251.25 205.375 C-251.03569336 204.34375 -250.82138672 203.3125 -250.60058594 202.25 C-242.68431392 165.37653501 -226.61800388 130.02531106 -203.25 100.375 C-202.46882813 99.38242188 -201.68765625 98.38984375 -200.8828125 97.3671875 C-187.92755877 81.27398304 -173.6502392 65.9675164 -156.99316406 53.66943359 C-155.21515129 52.34912215 -153.46246329 50.9997299 -151.7109375 49.64453125 C-108.43827334 16.55092378 -54.11860109 -0.10961682 0 0 Z " fill="#F23F51" transform="translate(255.25,-0.375)"/>
<path d="M0 0 C25.74 0 51.48 0 78 0 C78.84728203 4.23641013 79.08384078 7.72412002 79 12 C79.93972656 11.7834375 80.87945312 11.566875 81.84765625 11.34375 C117.10575909 3.99849343 155.02983786 8.92829341 185.8671875 27.75 C202.19715119 38.73838678 215.5390953 53.94648527 219.62280273 73.63305664 C220.2472535 77.5515357 220.34086599 81.4130822 220.3125 85.375 C220.30686035 86.20717041 220.3012207 87.03934082 220.29541016 87.89672852 C220.16892698 94.32295045 219.42060256 99.99950248 217 106 C216.63261719 106.94746094 216.26523437 107.89492187 215.88671875 108.87109375 C206.95030844 129.14277378 187.0876514 141.01719753 167.53515625 149.50390625 C142.21637659 159.10758129 115.83398345 161.50593469 89 161 C89.04445755 161.99022659 89.04445755 161.99022659 89.08981323 163.00045776 C89.83866282 180.11720335 90.15937916 197.20235348 90.13037109 214.33496094 C90.12487539 218.21292807 90.13042964 222.09078575 90.13671875 225.96875 C90.13606007 228.44010442 90.13478329 230.91145878 90.1328125 233.3828125 C90.13483673 234.53975616 90.13686096 235.69669983 90.13894653 236.88870239 C90.13421829 238.46964188 90.13421829 238.46964188 90.12939453 240.08251953 C90.12859894 241.01146027 90.12780334 241.940401 90.12698364 242.89749146 C90 245 90 245 89 246 C87.51163812 246.24844596 86.01323314 246.43712969 84.51318359 246.60083008 C83.07022415 246.76173378 83.07022415 246.76173378 81.59811401 246.92588806 C80.01427414 247.09599144 80.01427414 247.09599144 78.3984375 247.26953125 C76.75985275 247.45117577 76.75985275 247.45117577 75.08816528 247.63648987 C72.73841625 247.89678519 70.38846216 248.15523447 68.03833008 248.41204834 C61.95940713 249.07655706 55.88193823 249.75398128 49.8046875 250.43359375 C48.60797424 250.56731384 47.41126099 250.70103394 46.17828369 250.83880615 C35.35898752 252.05601188 24.56285454 253.41356673 13.77490234 254.88208008 C12.10741943 255.1067395 12.10741943 255.1067395 10.40625 255.3359375 C9.47103516 255.46532715 8.53582031 255.5947168 7.57226562 255.72802734 C5.02544564 255.99730956 2.55864965 256.0185927 0 256 C-0.00808685 255.38566101 -0.01617371 254.77132202 -0.02450562 254.1383667 C0.43817125 185.83128653 0.43817125 185.83128653 -16.984375 120.453125 C-17.87558011 118.30052188 -18.51151405 116.2725216 -19 114 C-17.10807525 113.01330241 -15.21128022 112.0359398 -13.3125 111.0625 C-12.25675781 110.51722656 -11.20101562 109.97195312 -10.11328125 109.41015625 C-7 108 -7 108 -2 107 C-1.67 100.4 -1.34 93.8 -1 87 C-3.50651042 87.03255208 -6.01302083 87.06510417 -8.51953125 87.09765625 C-11.61303776 87.01085753 -14.63780617 86.78184213 -17.7175293 86.49389648 C-18.707061 86.40196518 -19.69659271 86.31003387 -20.71611023 86.21531677 C-21.46979385 86.14426224 -22.22347748 86.0732077 -23 86 C-24.12698372 78.81505172 -25.24724849 71.62907807 -26.36303711 64.44238281 C-26.74270658 62.00204239 -27.123865 59.56193311 -27.5065918 57.12207031 C-28.05917899 53.59761587 -28.60625273 50.07234112 -29.15234375 46.546875 C-29.3221727 45.4713739 -29.49200165 44.3958728 -29.66697693 43.28778076 C-30.75098997 36.24450892 -31.82447355 29.13384536 -32 22 C-30.21776311 20.21776311 -27.55489448 20.38407734 -25.13671875 20.02734375 C-23.93982422 19.85009766 -22.74292969 19.67285156 -21.50976562 19.49023438 C-20.24841797 19.30783203 -18.98707031 19.12542969 -17.6875 18.9375 C-16.43775391 18.75123047 -15.18800781 18.56496094 -13.90039062 18.37304688 C-4.53047734 17 -4.53047734 17 0 17 C0 11.39 0 5.78 0 0 Z " fill="#FEFAFA" transform="translate(162,128)"/>
<path d="M0 0 C18.315 0.495 18.315 0.495 37 1 C38.59762667 24.40181164 39.79289036 47.79850211 40.81822062 71.23133588 C41.03516685 76.17749729 41.25526291 81.12351888 41.474823 86.06956482 C41.84174599 94.34665291 42.20607415 102.62385212 42.56884766 110.90112305 C42.98658644 120.43162213 43.40886176 129.96191246 43.83342373 139.49210984 C44.20092747 147.7441651 44.5660032 155.99632522 44.92907703 164.24857658 C45.14463943 169.14805513 45.36099869 174.04749466 45.57956314 178.94684029 C45.7843068 183.53941538 45.9859778 188.13211578 46.18537521 192.72492599 C46.25848593 194.39779091 46.33261906 196.07061153 46.40791321 197.74337959 C46.84657607 207.50551952 47.09896239 217.22562024 47 227 C34.375 230 34.375 230 31 230 C30.76289307 229.04109863 30.52578613 228.08219727 30.28149414 227.09423828 C29.40236537 223.54156177 28.52013694 219.98966113 27.63696289 216.43798828 C27.25492925 214.89978737 26.87374004 213.36137648 26.4934082 211.82275391 C25.94703735 209.61305066 25.39764843 207.4041168 24.84765625 205.1953125 C24.6778273 204.50567413 24.50799835 203.81603577 24.33302307 203.10549927 C23.43074671 199.45976242 23.43074671 199.45976242 22 196 C21.95101562 197.23492187 21.90203125 198.46984375 21.8515625 199.7421875 C21.35735989 211.23325429 20.41972753 222.58704468 19 234 C15.7 234.33 12.4 234.66 9 235 C7.35 220.48 5.7 205.96 4 191 C3.01 196.61 2.02 202.22 1 208 C0.13606824 212.60680378 -0.73489066 217.2108545 -1.625 221.8125 C-1.8415625 222.94236328 -2.058125 224.07222656 -2.28125 225.23632812 C-4.00793746 234.19485166 -4.00793746 234.19485166 -5 238 C-7.43681587 238.50354867 -9.87435439 239.00296756 -12.3125 239.5 C-13.00279297 239.64308594 -13.69308594 239.78617188 -14.40429688 239.93359375 C-17.32524773 240.52625044 -20.01108122 241 -23 241 C-23 161.8 -23 82.6 -23 1 C-18.38 1 -13.76 1 -9 1 C-7.75013467 4.749596 -7.43281328 8.47726444 -7.02734375 12.38671875 C-6.93997452 13.20372757 -6.85260529 14.02073639 -6.7625885 14.86250305 C-6.48442175 17.47051306 -6.21090539 20.07898698 -5.9375 22.6875 C-5.74965515 24.45641275 -5.56150778 26.2252934 -5.37304688 27.99414062 C-4.91185407 32.32906252 -4.45483119 36.66440621 -4 41 C-2.83820002 30.80039408 -1.72561122 20.60618351 -0.875 10.375 C-0.58625 6.95125 -0.2975 3.5275 0 0 Z " fill="#F24052" transform="translate(194,135)"/>
<path d="M0 0 C17.39174455 5.90928089 33.1198364 14.73779856 42.16894531 31.3503418 C47.41097801 42.73366803 49.68349472 57.33426065 45.73144531 69.5378418 C45.16574844 70.87875291 44.58211416 72.21222779 43.98144531 73.5378418 C43.70300781 74.3422168 43.42457031 75.1465918 43.13769531 75.9753418 C40.83349898 82.49065558 37.53607255 87.3740566 32.98144531 92.5378418 C32.39621094 93.21717773 31.81097656 93.89651367 31.20800781 94.59643555 C14.6483105 112.5186396 -11.41938458 119.30412225 -35.01855469 120.5378418 C-39.89387057 120.69627365 -44.76584902 120.76147752 -49.64355469 120.7878418 C-50.85374268 120.7971875 -52.06393066 120.8065332 -53.31079102 120.81616211 C-54.46474365 120.81197266 -55.61869629 120.8077832 -56.80761719 120.8034668 C-57.83580566 120.80121094 -58.86399414 120.79895508 -59.92333984 120.79663086 C-63.01855469 120.5378418 -63.01855469 120.5378418 -70.01855469 118.5378418 C-70.01855469 107.6478418 -70.01855469 96.7578418 -70.01855469 85.5378418 C-67.70855469 85.8678418 -65.39855469 86.1978418 -63.01855469 86.5378418 C-53.18614098 87.29837737 -43.80464354 87.52359857 -35.01855469 82.5378418 C-33.94605469 82.0015918 -32.87355469 81.4653418 -31.76855469 80.9128418 C-27.09087693 76.87302919 -23.96759115 71.3849512 -22.01855469 65.5378418 C-21.87300636 63.416195 -21.79775056 61.28927474 -21.76855469 59.1628418 C-21.74277344 58.04135742 -21.71699219 56.91987305 -21.69042969 55.7644043 C-22.05028444 52.22583252 -23.06181886 50.45234831 -25.01855469 47.5378418 C-25.01855469 46.8778418 -25.01855469 46.2178418 -25.01855469 45.5378418 C-26.68161309 44.86222432 -28.34950074 44.19850899 -30.01855469 43.5378418 C-31.23091797 43.02890381 -32.44328125 42.51996582 -33.69238281 41.99560547 C-37.93487462 40.4137424 -41.74019499 40.06703341 -46.23730469 40.02612305 C-46.98065063 40.00817184 -47.72399658 39.99022064 -48.48986816 39.97172546 C-50.83270823 39.91812715 -53.17535074 39.883892 -55.51855469 39.8503418 C-57.1201444 39.81712388 -58.7217082 39.78263017 -60.32324219 39.74682617 C-64.2215358 39.66243113 -68.119776 39.59538248 -72.01855469 39.5378418 C-72.01855469 35.5778418 -72.01855469 31.6178418 -72.01855469 27.5378418 C-65.03280044 25.24830344 -58.36868425 23.11432255 -51.01855469 22.5378418 C-51.01855469 21.8778418 -51.01855469 21.2178418 -51.01855469 20.5378418 C-51.60121094 20.54944336 -52.18386719 20.56104492 -52.78417969 20.57299805 C-59.57867723 20.64778025 -66.25747724 20.1883922 -73.01855469 19.5378418 C-73.01855469 17.5578418 -73.01855469 15.5778418 -73.01855469 13.5378418 C-66.35188802 10.20450846 -59.68522135 6.87117513 -53.01855469 3.5378418 C-59.61855469 3.8678418 -66.21855469 4.1978418 -73.01855469 4.5378418 C-73.01855469 1.2378418 -73.01855469 -2.0621582 -73.01855469 -5.4621582 C-55.73443546 -14.10421781 -17.15047351 -5.40938891 0 0 Z " fill="#F24052" transform="translate(320.0185546875,155.462158203125)"/>
<path d="M0 0 C0.52464844 0.39832031 1.04929687 0.79664063 1.58984375 1.20703125 C2.41484375 1.80515625 3.23984375 2.40328125 4.08984375 3.01953125 C4.58484375 3.41140625 5.07984375 3.80328125 5.58984375 4.20703125 C4.65845172 9.42282659 1.43355965 12.73413766 -2.41015625 16.20703125 C-11.46719132 21.54992084 -21.38846295 22.57773306 -31.671875 20.5703125 C-39.01450893 18.60267857 -39.01450893 18.60267857 -40.41015625 17.20703125 C-40.49667236 15.79133002 -40.51720529 14.37143625 -40.5078125 12.953125 C-40.50458984 12.09912109 -40.50136719 11.24511719 -40.49804688 10.36523438 C-40.48966797 9.46740234 -40.48128906 8.56957031 -40.47265625 7.64453125 C-40.46814453 6.74283203 -40.46363281 5.84113281 -40.45898438 4.91210938 C-40.4471585 2.67701811 -40.43067845 0.44205688 -40.41015625 -1.79296875 C-27.79016379 -9.31642579 -12.30862719 -8.61343679 0 0 Z " fill="#F24253" transform="translate(287.41015625,207.79296875)"/>
<path d="M0 0 C0 16.5 0 33 0 50 C-11 50 -11 50 -16 49 C-16.861168 43.43256413 -17.71543929 37.86412884 -18.56347656 32.29467773 C-18.85262126 30.40213834 -19.14361281 28.50988012 -19.43652344 26.61791992 C-19.85843868 23.89053922 -20.27359162 21.16219962 -20.6875 18.43359375 C-20.81874268 17.59477158 -20.94998535 16.7559494 -21.08520508 15.89170837 C-21.78938698 11.20026174 -22.13371154 6.74397394 -22 2 C-20.02237145 1.65765935 -18.04278161 1.32664439 -16.0625 1 C-14.40927734 0.7215625 -14.40927734 0.7215625 -12.72265625 0.4375 C-8.50826849 -0.05779006 -4.2433921 0 0 0 Z " fill="#F24052" transform="translate(161,154)"/>
<path d="M0 0 C8.53822507 3.18176592 13.0602181 8.32697955 16.8984375 16.578125 C19.87088831 25.8116956 18.70739102 35.19494634 15 44 C14.67 44 14.34 44 14 44 C13.86013672 43.41323486 13.72027344 42.82646973 13.57617188 42.22192383 C10.0652806 27.68587437 5.66101181 13.84115225 0 0 Z " fill="#FEF5F6" transform="translate(328,178)"/>
<path d="M0 0 C5.90575182 0.83929229 9.09181583 3.62619233 13 8 C17.73819163 15.24003851 20.13875981 20.9882377 20.1875 29.625 C20.20167969 30.77226562 20.21585937 31.91953125 20.23046875 33.1015625 C20 36 20 36 18 38 C17.52373169 36.81241089 17.52373169 36.81241089 17.0378418 35.60083008 C15.850302 32.64551719 14.65896502 29.69177151 13.46508789 26.73901367 C12.95055504 25.46423229 12.43751062 24.18884904 11.92602539 22.9128418 C11.18774051 21.07180229 10.44353512 19.23314055 9.69921875 17.39453125 C9.25408936 16.28956299 8.80895996 15.18459473 8.3503418 14.04614258 C7.06751958 10.98257057 7.06751958 10.98257057 5.33129883 8.2253418 C4 6 4 6 4 4 C3.01 3.67 2.02 3.34 1 3 C0.67 2.01 0.34 1.02 0 0 Z " fill="#FEF4F5" transform="translate(306,176)"/>
<path d="M0 0 C1.98 0 3.96 0 6 0 C6 4.62 6 9.24 6 14 C3.47524538 11.47524538 2.95692129 9.26502003 1.875 5.875 C1.52179688 4.77929688 1.16859375 3.68359375 0.8046875 2.5546875 C0.53914062 1.71164063 0.27359375 0.86859375 0 0 Z " fill="#F24556" transform="translate(153,246)"/>
<path d="M0 0 C1.67542976 0.28604898 3.34385343 0.61781233 5 1 C5 2.65 5 4.3 5 6 C3.35 5.67 1.7 5.34 0 5 C-0.5625 3.0625 -0.5625 3.0625 -1 1 C-0.67 0.67 -0.34 0.34 0 0 Z " fill="#FEF5F6" transform="translate(196,264)"/>
</svg>
